<?xml version="1.0" encoding="iso-8859-1"?>
<!-- Generator: Adobe Illustrator 19.0.0, SVG Export Plug-In . SVG Version: 6.00 Build 0)  -->
<svg xmlns="http://www.w3.org/2000/svg" xmlns:xlink="http://www.w3.org/1999/xlink" version="1.1" id="Layer_1" x="0px" y="0px" viewBox="0 0 512 512" style="enable-background:new 0 0 512 512;" xml:space="preserve" width="512px" height="512px">
<g>
	<g>
		<path d="M472.644,51.981H39.357c-9.446,0-17.103,7.658-17.103,17.103v323.825c0,9.446,7.657,17.103,17.103,17.103h433.287    c9.446,0,17.103-7.658,17.103-17.103V69.084C489.747,59.638,482.09,51.981,472.644,51.981z M455.54,375.805H56.461V86.188h399.08    V375.805z" fill="#006DF0"/>
	</g>
</g>
<g>
	<g>
		<path d="M398.542,132.492c-0.002-8.679-6.504-15.983-15.124-16.988l-68.076-7.938c-20.005-2.335-40.374-0.042-59.341,6.626    c-18.967-6.668-39.337-8.959-59.341-6.626l-68.076,7.938c-8.621,1.005-15.123,8.309-15.123,16.988v182.994    c0,3.826,1.263,7.381,3.412,10.248c-0.026,0.383-0.058,0.765-0.058,1.155c0,9.446,7.658,17.103,17.103,17.103h102.484    c5.189,0,9.829-2.319,12.964-5.968c2.252-0.814,4.471-1.729,6.635-2.773c2.173,1.048,4.396,1.981,6.657,2.797    c3.137,3.634,7.766,5.944,12.944,5.944h102.484c9.446,0,17.103-7.658,17.103-17.103c0-0.39-0.033-0.771-0.058-1.155    c2.148-2.868,3.412-6.423,3.412-10.248V132.492z M364.333,300.076l-74.118,7.741c-8.628,0.9-17.289-1.348-24.391-6.331    c-5.896-4.138-13.752-4.139-19.65,0c-7.1,4.983-15.763,7.231-24.389,6.329l-74.118-7.741V147.718l52.953-6.175    c16.555-1.928,33.45,0.407,48.859,6.762c4.178,1.723,8.863,1.723,13.042,0c15.408-6.354,32.303-8.691,48.859-6.762l52.953,6.175    V300.076z" fill="#006DF0"/>
	</g>
</g>
<g>
	<g>
		<path d="M309.233,198.962l-63.129-31.652c-7.946-3.984-17.206-3.576-24.771,1.093c-7.564,4.669-12.081,12.764-12.081,21.653    v63.304c0,8.888,4.515,16.984,12.08,21.652c4.111,2.538,8.722,3.817,13.351,3.817c3.889,0,7.792-0.903,11.421-2.722l63.13-31.652    c8.66-4.343,14.041-13.06,14.041-22.749C323.274,212.02,317.893,203.304,309.233,198.962z M243.459,239.167v-34.918l34.821,17.459    L243.459,239.167z" fill="#006DF0"/>
	</g>
</g>
<g>
	<g>
		<path d="M494.897,425.812H17.103C7.658,425.812,0,433.47,0,442.916c0,9.446,7.658,17.103,17.103,17.103h477.793    c9.446,0,17.103-7.658,17.103-17.103C512,433.47,504.342,425.812,494.897,425.812z" fill="#006DF0"/>
	</g>
</g>
<g>
</g>
<g>
</g>
<g>
</g>
<g>
</g>
<g>
</g>
<g>
</g>
<g>
</g>
<g>
</g>
<g>
</g>
<g>
</g>
<g>
</g>
<g>
</g>
<g>
</g>
<g>
</g>
<g>
</g>
</svg>
