<?xml version="1.0" encoding="iso-8859-1"?>
<!-- Generator: Adobe Illustrator 19.0.0, SVG Export Plug-In . SVG Version: 6.00 Build 0)  -->
<svg xmlns="http://www.w3.org/2000/svg" xmlns:xlink="http://www.w3.org/1999/xlink" version="1.1" id="Layer_1" x="0px" y="0px" viewBox="0 0 491.52 491.52" style="enable-background:new 0 0 491.52 491.52;" xml:space="preserve" width="512px" height="512px">
<g>
	<g>
		<path d="M208.98,189.055v113.41l98.22-56.705L208.98,189.055z M229.46,224.525l36.78,21.235l-36.78,21.235V224.525z" fill="#006DF0"/>
	</g>
</g>
<g>
	<g>
		<rect x="389.12" y="327.68" width="20.48" height="20.48" fill="#006DF0"/>
	</g>
</g>
<g>
	<g>
		<rect x="430.08" y="327.68" width="20.48" height="20.48" fill="#006DF0"/>
	</g>
</g>
<g>
	<g>
		<polygon points="122.88,327.68 122.88,317.44 102.4,317.44 102.4,327.68 40.96,327.68 40.96,348.16 102.4,348.16 102.4,358.4     122.88,358.4 122.88,348.16 368.64,348.16 368.64,327.68   " fill="#006DF0"/>
	</g>
</g>
<g>
	<g>
		<path d="M450.56,153.6V81.92H215.07l-44.22-51.2H40.96V153.6H0v235.52h40.96v71.68h409.6v-71.68h40.96V153.6H450.56z M61.44,51.2    h100.04l44.22,51.2h224.38v51.2H61.44V51.2z M430.08,440.32H61.44v-51.2h368.64V440.32z M471.04,368.64H20.48V174.08h450.56    V368.64z" fill="#006DF0"/>
	</g>
</g>
<g>
</g>
<g>
</g>
<g>
</g>
<g>
</g>
<g>
</g>
<g>
</g>
<g>
</g>
<g>
</g>
<g>
</g>
<g>
</g>
<g>
</g>
<g>
</g>
<g>
</g>
<g>
</g>
<g>
</g>
</svg>
